<svg xmlns="http://www.w3.org/2000/svg" xml:space="preserve" viewBox="0 0 451 121"><path fill="#E84623" d="M92-158v67c0 19.9-16.1 36-36 36S20-71.1 20-91s16.1-36 36-36c5.4 0 10.5 1.2 15.1 3.4V-158H92zM72.9-91.8c0-9.4-7.6-17-17-17s-17 7.6-17 17 7.6 17 17 17 17-7.6 17-17z"/><path fill="none" stroke="#4D4D4D" stroke-linecap="round" stroke-linejoin="round" stroke-miterlimit="10" stroke-width="10" d="M109-106.5V-42H3v-101h58.6"/><path fill="#E84623" d="M94 0v67c0 19.9-16.1 36-36 36S22 86.9 22 67s16.1-36 36-36c5.4 0 10.5 1.2 15.1 3.4V0H94zM74.9 66.2c0-9.4-7.6-17-17-17s-17 7.6-17 17 7.6 17 17 17 17-7.6 17-17z"/><path fill="none" stroke="#4D4D4D" stroke-linecap="round" stroke-linejoin="round" stroke-miterlimit="10" stroke-width="10" d="M111 51.5V116H5V15h58.6"/><path fill="none" d="M133 28.3h321V118H133z"/><g fill="#333"><path d="M149.4 72.3v19.1c0 1.1-.4 2-1.2 2.7-1 .9-2.2 1.3-3.8 1.3-2 0-3.5-.7-4.3-2-.4-.6-.6-1.2-.6-2V50.8c0-5.8 2.9-8.7 8.7-8.7H161c5.1 0 9.2.8 12.4 2.5 1.8 1 3.3 2.2 4.6 3.9 1.9 2.4 2.8 5.3 2.8 8.6 0 7.9-4.3 12.6-13 14.1L182 88.1c.6.8.9 1.7.9 2.6 0 1.6-.7 2.9-2.2 3.7-1.1.6-2.2.9-3.4.9-1.9 0-3.5-.8-4.7-2.5L158 72.3h-8.6zm0-7.9h10.2c7.2 0 10.8-2.4 10.8-7.2 0-4.7-3.5-7-10.4-7h-9.1c-1 0-1.4.5-1.4 1.4v12.8zM201.5 71.7v13.1c0 .9.4 1.3 1.3 1.3H228c1 0 1.8.3 2.4 1 .8.8 1.1 1.9 1.1 3.2 0 1.8-.6 3.1-1.9 3.8-.5.3-1 .4-1.7.4h-29.3c-4.7 0-7-2.3-7-7V49c0-4.7 2.3-7 7-7h28.2c.8 0 1.6.3 2.2.8.9.8 1.3 1.9 1.3 3.3 0 1.7-.6 3-1.9 3.7-.5.3-1 .4-1.7.4h-24c-.9 0-1.3.5-1.3 1.4v11.8h22.3c.8 0 1.5.3 2 .8.8.8 1.3 1.9 1.3 3.4 0 1.7-.6 2.9-1.7 3.6-.4.3-1 .5-1.6.5h-22.2zM263 40.8c6.8 0 12.2 1.9 16.3 5.6 2.3 2.1 3.4 4 3.4 5.7 0 1.1-.4 2.1-1.3 3-1 1.1-2.2 1.6-3.7 1.6-1.2 0-2.1-.4-2.8-1.2-.1-.1-.4-.4-.9-1.1-2.7-3.6-6.4-5.4-11-5.4-3.6 0-6.8 1.2-9.4 3.7-3.8 3.5-5.6 8.6-5.6 15.5 0 4.9 1.1 9.1 3.3 12.5 2.8 4.2 6.7 6.4 11.8 6.4 5 0 9.2-2.2 12.7-6.6.8-1 1.9-1.5 3.2-1.5s2.5.5 3.5 1.4c1 .9 1.5 2.1 1.5 3.4 0 1.5-.7 2.9-2 4.4-4.5 5-10.8 7.5-18.9 7.5-8.1 0-14.6-2.8-19.4-8.4-4.2-4.9-6.3-11.2-6.3-19.1 0-8.5 2.5-15.3 7.5-20.5 4.8-4.5 10.7-6.9 18.1-6.9zM315.9 40.8c5.3 0 10 1.4 14.1 4.2 4.1 2.8 7.1 6.8 9 11.8 1.3 3.5 2 7.3 2 11.5 0 7.5-2 13.8-6 18.8-4.7 5.9-11.1 8.8-19.2 8.8-8.6 0-15.2-3.2-19.8-9.7-3.5-4.9-5.3-10.8-5.3-17.8 0-5.3 1.1-10.1 3.2-14.3 3-6 7.6-10.1 13.9-12 2.4-.9 5.2-1.3 8.1-1.3zm-.2 8.2c-4.2 0-7.7 1.7-10.4 5.1-2.8 3.6-4.2 8.3-4.2 14.1 0 5.1 1.1 9.3 3.2 12.7 2.7 4.3 6.5 6.4 11.4 6.4 4.7 0 8.4-2 11.1-6 2.3-3.4 3.5-7.8 3.5-13 0-6-1.5-10.8-4.4-14.3-2.6-3.4-6-5-10.2-5zM360.9 72.3v19.1c0 1.1-.4 2-1.2 2.7-1 .9-2.2 1.3-3.8 1.3-2 0-3.5-.7-4.3-2-.4-.6-.6-1.2-.6-2V50.8c0-5.8 2.9-8.7 8.7-8.7h12.8c5.1 0 9.2.8 12.4 2.5 1.8 1 3.3 2.2 4.6 3.9 1.9 2.4 2.8 5.3 2.8 8.6 0 7.9-4.3 12.6-13 14.1l14.1 17.1c.6.8.9 1.7.9 2.6 0 1.6-.7 2.9-2.2 3.7-1.1.6-2.2.9-3.4.9-1.9 0-3.5-.8-4.7-2.5l-14.7-20.6h-8.4zm0-7.9h10.2c7.2 0 10.8-2.4 10.8-7.2 0-4.7-3.5-7-10.4-7h-9.1c-1 0-1.4.5-1.4 1.4v12.8zM411.5 42.1h10.9c6.6 0 12.1 1.4 16.7 4.3 3.4 2.1 6.1 5 8.1 8.7 2 3.9 3 8.3 3 13.2 0 6.6-1.8 12.2-5.3 16.8-4.9 6.4-12.5 9.6-22.7 9.6h-10.7c-5.5 0-8.3-2.7-8.3-8.2V50.2c0-5.4 2.8-8.1 8.3-8.1zm1.6 10v32.3c0 1.1.6 1.7 1.7 1.7h6c4.8 0 8.6-.8 11.3-2.4 5-3 7.6-8.2 7.6-15.4 0-4.1-.9-7.7-2.7-10.6-2.2-3.5-5.2-5.7-9.2-6.6-1.9-.4-4.1-.6-6.7-.6h-6.2c-1.3 0-1.8.5-1.8 1.6z"/></g></svg>
